<svg xmlns="http://www.w3.org/2000/svg" height="24" width="24" style=""><rect id="backgroundrect" width="100%" height="100%" x="0" y="0" fill="none" stroke="none"/><g class="currentLayer" style=""><title>Layer 1</title><path d="M0 0h24v24H0V0z" fill="none" id="svg_1"/><path d="M61.93211511864621,-7.680803004727698 C59.47352626424184,-17.269033090932787 48.5183435747636,-24.4671536484027 35.35766206001085,-24.4671536484027 C24.908659428792326,-24.4671536484027 15.833574098564473,-19.909270361047234 11.314109292674107,-13.239197257600216 C0.43123804009010946,-12.349854177140614 -8.029200076536654,-5.262901504728153 -8.029200076536654,3.324817615959887 c0,9.199142488504016 9.725888262276069,16.675182758617552 21.693431068273753,16.675182758617552 h47.0024339812598 c9.978978291405927,0 18.07785922356146,-6.22540156321722 18.07785922356146,-13.895985632181294 c0,-7.337080413791723 -7.411922281660199,-13.284562264365317 -16.81240907791216,-13.784817747123842 zM42.58880574943544,0.5456204895236284 v11.116788505745035 h-14.462287378849169 v-11.116788505745035 H17.27980283644939 l18.07785922356146,-13.895985632181294 l18.07785922356146,13.895985632181294 h-10.846715534136877 z" id="svg_2" class="" fill="#67e767" fill-opacity="1" stroke="#e76767" stroke-opacity="1"/></g></svg>